<svg width="16" height="16" viewBox="0 0 16 16" fill="none" xmlns="http://www.w3.org/2000/svg">
<path d="M9.86744 4.26657C10.2146 4.26657 10.508 4.4903 10.6184 4.79989H13.3832C13.4936 4.4903 13.7869 4.26657 14.1341 4.26657C14.5752 4.26657 14.9341 4.6255 14.9341 5.06655C14.9341 5.50761 14.5752 5.86654 14.1341 5.86654C13.7869 5.86654 13.4936 5.64281 13.3832 5.33322H10.6181C10.5077 5.64281 10.2144 5.86654 9.86717 5.86654C9.42611 5.86654 9.06718 5.50761 9.06718 5.06655C9.06718 4.6255 9.42637 4.26657 9.86744 4.26657ZM14.1341 5.33322C14.281 5.33322 14.4008 5.21375 14.4008 5.06655C14.4008 4.91936 14.281 4.79989 14.1341 4.79989C13.9872 4.79989 13.8674 4.91936 13.8674 5.06655C13.8674 5.21375 13.9872 5.33322 14.1341 5.33322ZM9.86744 5.33322C10.0144 5.33322 10.1341 5.21375 10.1341 5.06655C10.1341 4.91936 10.0144 4.79989 9.86744 4.79989C9.72051 4.79989 9.60077 4.91936 9.60077 5.06655C9.60077 5.21375 9.72051 5.33322 9.86744 5.33322Z" fill="#00B2FF"/>
<path d="M7.73397 5.91561V4.26658C7.73397 4.19564 7.76197 4.12791 7.8121 4.07805L8.87876 3.0114C8.92863 2.96127 8.99663 2.93327 9.0673 2.93327H9.91636C10.0268 2.62368 10.3201 2.39995 10.6673 2.39995C11.1084 2.39995 11.4673 2.75887 11.4673 3.19993C11.4673 3.64099 11.1084 3.99991 10.6673 3.99991C10.3201 3.99991 10.0268 3.77619 9.91636 3.46659H9.1777L8.2673 4.37697V5.91561C8.5769 6.026 8.80063 6.31933 8.80063 6.66652C8.80063 7.10758 8.4417 7.46651 8.00063 7.46651C7.55957 7.46651 7.20064 7.10758 7.20064 6.66652C7.20064 6.31933 7.42437 6.026 7.73397 5.91561ZM10.6673 3.46659C10.8142 3.46659 10.934 3.34713 10.934 3.19993C10.934 3.05273 10.8142 2.93327 10.6673 2.93327C10.5204 2.93327 10.4006 3.05273 10.4006 3.19993C10.4006 3.34713 10.5204 3.46659 10.6673 3.46659ZM8.00063 6.93318C8.14757 6.93318 8.2673 6.81372 8.2673 6.66652C8.2673 6.51933 8.14757 6.39986 8.00063 6.39986C7.8537 6.39986 7.73397 6.51933 7.73397 6.66652C7.73397 6.81372 7.8537 6.93318 8.00063 6.93318Z" fill="#00B2FF"/>
<path d="M2.93385 6.93319C3.05704 6.93319 3.17224 6.96332 3.27651 7.01345L3.73384 6.55613V3.99992C3.73384 3.92898 3.76184 3.86125 3.81197 3.81139L6.48076 1.14264C6.43063 1.03838 6.4005 0.923181 6.4005 0.799983C6.4005 0.358926 6.75943 0 7.20049 0C7.64156 0 8.00049 0.358926 8.00049 0.799983C8.00049 1.24104 7.64156 1.59997 7.20049 1.59997C7.07729 1.59997 6.96209 1.56983 6.85783 1.5197L4.26717 4.11031V6.66653C4.26717 6.73746 4.23917 6.80519 4.18904 6.85506L3.65358 7.39051C3.70371 7.49478 3.73384 7.60997 3.73384 7.73317C3.73384 8.17423 3.37491 8.53315 2.93385 8.53315C2.49278 8.53315 2.13385 8.17423 2.13385 7.73317C2.13385 7.29211 2.49278 6.93319 2.93385 6.93319ZM7.20049 1.06664C7.34742 1.06664 7.46716 0.94718 7.46716 0.799983C7.46716 0.652786 7.34742 0.533322 7.20049 0.533322C7.05356 0.533322 6.93383 0.652786 6.93383 0.799983C6.93383 0.94718 7.05356 1.06664 7.20049 1.06664ZM2.93385 7.99983C3.08078 7.99983 3.20051 7.88037 3.20051 7.73317C3.20051 7.58597 3.08078 7.46651 2.93385 7.46651C2.78691 7.46651 2.66718 7.58597 2.66718 7.73317C2.66718 7.88037 2.78691 7.99983 2.93385 7.99983Z" fill="#00B2FF"/>
<path d="M0.533943 3.78232V2.66661C0.533943 2.59568 0.561942 2.52795 0.612076 2.47808L2.47873 0.611454C2.5286 0.561321 2.5966 0.533322 2.66727 0.533322H4.04966C4.16006 0.223729 4.45339 0 4.80059 0C5.24165 0 5.60059 0.358926 5.60059 0.799983C5.60059 1.24104 5.24165 1.59997 4.80059 1.59997C4.45339 1.59997 4.16006 1.37624 4.04966 1.06664H2.77767L1.06727 2.77701V3.78232C1.37687 3.89272 1.6006 4.18604 1.6006 4.53324C1.6006 4.97429 1.24167 5.33322 0.800608 5.33322C0.359544 5.33322 0.000611931 4.97429 0.000611931 4.53324C0.000611931 4.18604 0.224344 3.89272 0.533943 3.78232ZM4.80059 1.06664C4.94752 1.06664 5.06726 0.94718 5.06726 0.799983C5.06726 0.652786 4.94752 0.533322 4.80059 0.533322C4.65366 0.533322 4.53392 0.652786 4.53392 0.799983C4.53392 0.94718 4.65366 1.06664 4.80059 1.06664ZM0.800608 4.7999C0.947541 4.7999 1.06727 4.68043 1.06727 4.53324C1.06727 4.38604 0.947541 4.26658 0.800608 4.26658C0.653676 4.26658 0.533943 4.38604 0.533943 4.53324C0.533943 4.68043 0.653676 4.7999 0.800608 4.7999Z" fill="#00B2FF"/>
<path d="M4.26703 14.449V10.6174C3.9577 10.507 3.73397 10.2137 3.73397 9.86647C3.73397 9.42541 4.0929 9.06649 4.53396 9.06649C4.88116 9.06649 5.17449 9.29022 5.28489 9.59981H8.04968C8.16008 9.29022 8.45341 9.06649 8.80061 9.06649C9.14781 9.06649 9.44114 9.29022 9.55154 9.59981H11.0902L12.0809 8.60916C12.0307 8.5049 12.0006 8.3897 12.0006 8.26651C12.0006 7.82545 12.3595 7.46652 12.8006 7.46652C13.2417 7.46652 13.6006 7.82545 13.6006 8.26651C13.6006 8.70756 13.2417 9.06649 12.8006 9.06649C12.6774 9.06649 12.5622 9.03636 12.4579 8.98622L11.3891 10.055C11.3393 10.1051 11.2713 10.1331 11.2006 10.1331H9.55154C9.44114 10.4427 9.14781 10.6665 8.80061 10.6665C8.45341 10.6665 8.16008 10.4427 8.04968 10.1331H5.28462C5.20409 10.359 5.02623 10.5369 4.80036 10.6174V14.449C5.10996 14.5594 5.33369 14.8528 5.33369 15.2C5.33369 15.641 4.97476 15.9999 4.53369 15.9999C4.09263 15.9999 3.7337 15.641 3.7337 15.2C3.7337 14.8528 3.95743 14.5594 4.26703 14.449ZM12.8006 8.53317C12.9475 8.53317 13.0673 8.4137 13.0673 8.26651C13.0673 8.11931 12.9475 7.99984 12.8006 7.99984C12.6537 7.99984 12.5339 8.11931 12.5339 8.26651C12.5339 8.4137 12.6537 8.53317 12.8006 8.53317ZM8.80061 10.1331C8.94754 10.1331 9.06727 10.0137 9.06727 9.86647C9.06727 9.71927 8.94754 9.59981 8.80061 9.59981C8.65368 9.59981 8.53394 9.71927 8.53394 9.86647C8.53394 10.0137 8.65368 10.1331 8.80061 10.1331ZM4.53396 15.4664C4.68089 15.4664 4.80063 15.3469 4.80063 15.1997C4.80063 15.0525 4.68089 14.933 4.53396 14.933C4.38703 14.933 4.2673 15.0525 4.2673 15.1997C4.2673 15.3469 4.38703 15.4664 4.53396 15.4664ZM4.53396 10.1331C4.68089 10.1331 4.80063 10.0137 4.80063 9.86647C4.80063 9.71927 4.68089 9.59981 4.53396 9.59981C4.38703 9.59981 4.2673 9.71927 4.2673 9.86647C4.2673 10.0137 4.38703 10.1331 4.53396 10.1331Z" fill="#00B2FF"/>
<path d="M5.60056 5.38229V4.53324C5.60056 4.4623 5.62856 4.39457 5.67869 4.34471L8.88081 1.14264C8.83068 1.03838 8.80054 0.92318 8.80054 0.799983C8.80054 0.358926 9.15947 0 9.60054 0C9.94774 0 10.2411 0.223729 10.3515 0.533322H11.4672C11.6144 0.533322 11.7339 0.652519 11.7339 0.799983V1.48957L12.7245 2.48021C12.8288 2.43008 12.944 2.39995 13.0672 2.39995C13.5083 2.39995 13.8672 2.75887 13.8672 3.19993C13.8672 3.64099 13.5083 3.99991 13.0672 3.99991C12.6261 3.99991 12.2672 3.64099 12.2672 3.19993C12.2672 3.07673 12.2973 2.96154 12.3475 2.85727L11.2787 1.7885C11.2285 1.73863 11.2005 1.6709 11.2005 1.59997V1.06664H10.3515C10.2411 1.37624 9.94774 1.59997 9.60054 1.59997C9.47734 1.59997 9.36214 1.56983 9.25787 1.5197L6.13389 4.64363V5.38229C6.44349 5.49268 6.66722 5.78601 6.66722 6.1332C6.66722 6.57426 6.30829 6.93319 5.86722 6.93319C5.42616 6.93319 5.06723 6.57426 5.06723 6.1332C5.06723 5.78601 5.29096 5.49268 5.60056 5.38229ZM13.0672 3.46659C13.2141 3.46659 13.3339 3.34713 13.3339 3.19993C13.3339 3.05273 13.2141 2.93327 13.0672 2.93327C12.9203 2.93327 12.8005 3.05273 12.8005 3.19993C12.8005 3.34713 12.9203 3.46659 13.0672 3.46659ZM9.60054 1.06664C9.74747 1.06664 9.86721 0.94718 9.86721 0.799983C9.86721 0.652786 9.74747 0.533322 9.60054 0.533322C9.45361 0.533322 9.33387 0.652786 9.33387 0.799983C9.33387 0.94718 9.45361 1.06664 9.60054 1.06664ZM5.86722 6.39986C6.01416 6.39986 6.13389 6.2804 6.13389 6.1332C6.13389 5.98601 6.01416 5.86654 5.86722 5.86654C5.72029 5.86654 5.60056 5.98601 5.60056 6.1332C5.60056 6.2804 5.72029 6.39986 5.86722 6.39986Z" fill="#00B2FF"/>
<path d="M6.40053 7.46651C6.74773 7.46651 7.04106 7.69024 7.15146 7.99983H10.2901L11.812 6.478C11.8618 6.42786 11.9298 6.39986 12.0005 6.39986H14.8234L15.4672 5.75614V3.57699L13.4098 1.5197C13.3056 1.56983 13.1904 1.59997 13.0672 1.59997C12.6261 1.59997 12.2672 1.24104 12.2672 0.799983C12.2672 0.358926 12.6261 0 13.0672 0C13.5082 0 13.8672 0.358926 13.8672 0.799983C13.8672 0.92318 13.837 1.03838 13.7869 1.14264L15.9224 3.27806C15.9725 3.32793 16.0005 3.39566 16.0005 3.46659V5.86654C16.0005 5.93747 15.9725 6.00521 15.9224 6.05507L15.1224 6.85505C15.0725 6.90519 15.0045 6.93319 14.9338 6.93319H12.1109L10.589 8.45502C10.5392 8.50515 10.4712 8.53315 10.4005 8.53315H7.15146C7.04106 8.84275 6.74773 9.06647 6.40053 9.06647C5.95946 9.06647 5.60053 8.70755 5.60053 8.26649C5.60053 7.82543 5.95946 7.46651 6.40053 7.46651ZM13.0672 0.533322C12.9202 0.533322 12.8005 0.652786 12.8005 0.799983C12.8005 0.94718 12.9202 1.06664 13.0672 1.06664C13.2141 1.06664 13.3338 0.94718 13.3338 0.799983C13.3338 0.652786 13.2141 0.533322 13.0672 0.533322ZM6.40053 8.53315C6.54746 8.53315 6.6672 8.41369 6.6672 8.26649C6.6672 8.11929 6.54746 7.99983 6.40053 7.99983C6.2536 7.99983 6.13386 8.11929 6.13386 8.26649C6.13386 8.41369 6.2536 8.53315 6.40053 8.53315Z" fill="#00B2FF"/>
<path d="M0.800567 6.39986C0.923766 6.39986 1.03897 6.43 1.14323 6.48013L2.13389 5.48948V3.95085C1.8243 3.84045 1.60056 3.54712 1.60056 3.19993C1.60056 2.75887 1.95949 2.39995 2.40056 2.39995C2.84162 2.39995 3.20056 2.75887 3.20056 3.19993C3.20056 3.54712 2.97682 3.84045 2.66723 3.95085V5.59988C2.66723 5.67081 2.63923 5.73854 2.58909 5.78841L1.5203 6.85719C1.57043 6.96145 1.60056 7.07665 1.60056 7.19985C1.60056 7.54704 1.37683 7.84037 1.06723 7.95076V8.15609L3.12242 10.2112C3.17256 10.2611 3.20056 10.3288 3.20056 10.3998V10.7155C3.51015 10.8259 3.73389 11.1192 3.73389 11.4664C3.73389 11.8136 3.51015 12.1069 3.20056 12.2173V12.8491C3.51015 12.9595 3.73389 13.2528 3.73389 13.6C3.73389 14.041 3.37496 14.4 2.93389 14.4C2.49283 14.4 2.13389 14.041 2.13389 13.6C2.13389 13.2528 2.35763 12.9595 2.66723 12.8491V12.2173C2.35763 12.1069 2.13389 11.8136 2.13389 11.4664C2.13389 11.1192 2.35763 10.8259 2.66723 10.7155V10.5102L0.612034 8.45502C0.561901 8.40515 0.533902 8.33742 0.533902 8.26649V7.95076C0.224303 7.84037 0.000570714 7.54704 0.000570714 7.19985C0.000570714 6.75879 0.359502 6.39986 0.800567 6.39986ZM2.40056 3.46659C2.54749 3.46659 2.66723 3.34713 2.66723 3.19993C2.66723 3.05273 2.54749 2.93327 2.40056 2.93327C2.25363 2.93327 2.13389 3.05273 2.13389 3.19993C2.13389 3.34713 2.25363 3.46659 2.40056 3.46659ZM2.93389 13.8664C3.08082 13.8664 3.20056 13.7469 3.20056 13.5997C3.20056 13.4525 3.08082 13.333 2.93389 13.333C2.78696 13.333 2.66723 13.4525 2.66723 13.5997C2.66723 13.7469 2.78696 13.8664 2.93389 13.8664ZM2.93389 11.7331C3.08082 11.7331 3.20056 11.6136 3.20056 11.4664C3.20056 11.3192 3.08082 11.1998 2.93389 11.1998C2.78696 11.1998 2.66723 11.3192 2.66723 11.4664C2.66723 11.6136 2.78696 11.7331 2.93389 11.7331ZM0.800567 7.46651C0.9475 7.46651 1.06723 7.34704 1.06723 7.19985C1.06723 7.05265 0.9475 6.93319 0.800567 6.93319C0.653634 6.93319 0.533902 7.05265 0.533902 7.19985C0.533902 7.34704 0.653634 7.46651 0.800567 7.46651Z" fill="#00B2FF"/>
</svg>
